<?xml version="1.0" standalone="no"?>
<!DOCTYPE svg PUBLIC "-//W3C//DTD SVG 20010904//EN"
 "http://www.w3.org/TR/2001/REC-SVG-20010904/DTD/svg10.dtd">
<svg version="1.0" xmlns="http://www.w3.org/2000/svg"
 width="1000.000000pt" height="1000.000000pt" viewBox="0 0 1000.000000 1000.000000"
 preserveAspectRatio="xMidYMid meet">

<g transform="translate(0.000000,1000.000000) scale(0.100000,-0.100000)"
fill="#000000" stroke="none">
<path d="M3715 2020 c-312 -30 -544 -117 -1030 -388 -333 -185 -534 -270 -649
-273 l-41 -1 40 -9 c122 -25 261 -1 431 73 l100 44 70 -23 c84 -29 323 -87
419 -102 133 -21 291 -31 481 -31 542 0 830 67 1366 318 l107 50 133 -55 c397
-162 654 -240 906 -273 94 -13 366 -14 427 -2 26 5 -19 8 -130 9 -359 1 -616
67 -1245 320 -356 144 -471 187 -615 233 -281 90 -562 130 -770 110z"/>
<path d="M7785 1830 c-94 -17 -415 -142 -415 -161 0 -15 283 -197 386 -247
186 -93 272 -111 574 -118 219 -6 388 4 345 20 -77 28 -113 54 -188 134 -214
229 -308 306 -428 352 -63 24 -198 34 -274 20z"/>
<path d="M6588 1373 c6 -2 18 -2 25 0 6 3 1 5 -13 5 -14 0 -19 -2 -12 -5z"/>
<path d="M6528 1363 c6 -2 18 -2 25 0 6 3 1 5 -13 5 -14 0 -19 -2 -12 -5z"/>
</g>
</svg>
